<svg xmlns="http://www.w3.org/2000/svg" width="1000" height="439" viewBox="0 0 1000 439" role="img"><title>Week 4: archived prop selections</title><rect width="100%" height="100%" fill="#0b1219"/><g font-family="Arial,sans-serif" fill="#e7eef9"><text x="30" y="38" font-size="25" font-weight="bold">Week 4: archived prop selections</text><text x="30" y="68" font-size="16" fill="#bac8d6">One archived selection per player / game / market</text><path d="M377.98461762111265 88V409" stroke="#78909c"/><text x="218" y="119" text-anchor="end" font-size="16">Rushing yards</text><rect x="230.0" y="100" width="148.0" height="26" fill="#f4ae91" rx="3"/><text x="855" y="119" font-size="15">-3.23u</text><text x="218" y="161" text-anchor="end" font-size="16">Rushing attempts</text><rect x="289.4" y="142" width="88.6" height="26" fill="#f4ae91" rx="3"/><text x="855" y="161" font-size="15">-1.93u</text><text x="218" y="203" text-anchor="end" font-size="16">Receiving yards</text><rect x="378.0" y="184" width="45.9" height="26" fill="#7ce2bd" rx="3"/><text x="855" y="203" font-size="15">+1.00u</text><text x="218" y="245" text-anchor="end" font-size="16">Passing completions</text><rect x="378.0" y="226" width="52.8" height="26" fill="#7ce2bd" rx="3"/><text x="855" y="245" font-size="15">+1.15u</text><text x="218" y="287" text-anchor="end" font-size="16">Passing attempts</text><rect x="378.0" y="268" width="189.6" height="26" fill="#7ce2bd" rx="3"/><text x="855" y="287" font-size="15">+4.13u</text><text x="218" y="329" text-anchor="end" font-size="16">Passing touchdowns</text><rect x="378.0" y="310" width="350.6" height="26" fill="#7ce2bd" rx="3"/><text x="855" y="329" font-size="15">+7.64u</text><text x="218" y="371" text-anchor="end" font-size="16">Receptions</text><rect x="378.0" y="352" width="462.0" height="26" fill="#7ce2bd" rx="3"/><text x="855" y="371" font-size="15">+10.07u</text><text x="30" y="429" font-size="13" fill="#bac8d6">Fourth &amp; Value · frozen pregame evidence</text></g></svg>