<svg xmlns="http://www.w3.org/2000/svg" width="1000" height="817" viewBox="0 0 1000 817" role="img"><title>Week 4: final points vs recorded close</title><rect width="100%" height="100%" fill="#0b1219"/><g font-family="Arial,sans-serif" fill="#e7eef9"><text x="30" y="38" font-size="25" font-weight="bold">Week 4: final points vs recorded close</text><text x="30" y="68" font-size="16" fill="#bac8d6">Negative finished under; positive finished over</text><path d="M465.28571428571433 88V787" stroke="#78909c"/><text x="218" y="119" text-anchor="end" font-size="16">ATL @ NO</text><rect x="465.3" y="100" width="374.7" height="26" fill="#7ce2bd" rx="3"/><text x="855" y="119" font-size="15">+21.5</text><text x="218" y="161" text-anchor="end" font-size="16">DAL @ HOU</text><rect x="465.3" y="142" width="270.1" height="26" fill="#7ce2bd" rx="3"/><text x="855" y="161" font-size="15">+15.5</text><text x="218" y="203" text-anchor="end" font-size="16">ARI @ NYG</text><rect x="465.3" y="184" width="270.1" height="26" fill="#7ce2bd" rx="3"/><text x="855" y="203" font-size="15">+15.5</text><text x="218" y="245" text-anchor="end" font-size="16">PIT @ CLE</text><rect x="465.3" y="226" width="217.9" height="26" fill="#7ce2bd" rx="3"/><text x="855" y="245" font-size="15">+12.5</text><text x="218" y="287" text-anchor="end" font-size="16">LAC @ SEA</text><rect x="465.3" y="268" width="183.0" height="26" fill="#7ce2bd" rx="3"/><text x="855" y="287" font-size="15">+10.5</text><text x="218" y="329" text-anchor="end" font-size="16">KC @ LV</text><rect x="465.3" y="310" width="165.6" height="26" fill="#7ce2bd" rx="3"/><text x="855" y="329" font-size="15">+9.5</text><text x="218" y="371" text-anchor="end" font-size="16">NE @ BUF</text><rect x="465.3" y="352" width="95.9" height="26" fill="#7ce2bd" rx="3"/><text x="855" y="371" font-size="15">+5.5</text><text x="218" y="413" text-anchor="end" font-size="16">DET @ CAR</text><rect x="465.3" y="394" width="95.9" height="26" fill="#7ce2bd" rx="3"/><text x="855" y="413" font-size="15">+5.5</text><text x="218" y="455" text-anchor="end" font-size="16">LA @ PHI</text><rect x="465.3" y="436" width="26.1" height="26" fill="#7ce2bd" rx="3"/><text x="855" y="455" font-size="15">+1.5</text><text x="218" y="497" text-anchor="end" font-size="16">TEN @ BAL</text><rect x="456.6" y="478" width="8.7" height="26" fill="#f4ae91" rx="3"/><text x="855" y="497" font-size="15">-0.5</text><text x="218" y="539" text-anchor="end" font-size="16">IND @ WAS</text><rect x="404.3" y="520" width="61.0" height="26" fill="#f4ae91" rx="3"/><text x="855" y="539" font-size="15">-3.5</text><text x="218" y="581" text-anchor="end" font-size="16">GB @ TB</text><rect x="334.6" y="562" width="130.7" height="26" fill="#f4ae91" rx="3"/><text x="855" y="581" font-size="15">-7.5</text><text x="218" y="623" text-anchor="end" font-size="16">NYJ @ CHI</text><rect x="317.1" y="604" width="148.1" height="26" fill="#f4ae91" rx="3"/><text x="855" y="623" font-size="15">-8.5</text><text x="218" y="665" text-anchor="end" font-size="16">DEN @ SF</text><rect x="282.3" y="646" width="183.0" height="26" fill="#f4ae91" rx="3"/><text x="855" y="665" font-size="15">-10.5</text><text x="218" y="707" text-anchor="end" font-size="16">JAX @ CIN</text><rect x="247.4" y="688" width="217.9" height="26" fill="#f4ae91" rx="3"/><text x="855" y="707" font-size="15">-12.5</text><text x="218" y="749" text-anchor="end" font-size="16">MIA @ MIN</text><rect x="230.0" y="730" width="235.3" height="26" fill="#f4ae91" rx="3"/><text x="855" y="749" font-size="15">-13.5</text><text x="30" y="807" font-size="13" fill="#bac8d6">Fourth &amp; Value · frozen pregame evidence</text></g></svg>